<svg width="32" height="32" viewBox="0 0 32 32" fill="none" xmlns="http://www.w3.org/2000/svg">
<path d="M31.331 8.24805C30.963 6.86205 29.879 5.77105 28.502 5.40005C26.006 4.72705 16 4.72705 16 4.72705C16 4.72705 5.993 4.72705 3.498 5.40005C2.121 5.77005 1.037 6.86205 0.669 8.24805C0 10.7601 0 16.0001 0 16.0001C0 16.0001 0 21.2411 0.669 23.7521C1.037 25.1381 2.121 26.2291 3.498 26.5991C5.994 27.2721 16 27.272 16 27.272C16 27.272 26.007 27.2721 28.502 26.5991C29.879 26.2291 30.963 25.1371 31.331 23.7521C32 21.2401 32 16.0001 32 16.0001C32 16.0001 32 10.7601 31.331 8.24805ZM12.727 20.758V11.2421L21.091 16.0001L12.727 20.758Z" fill="black"/>
</svg>
